<?xml version="1.0" encoding="utf-8"?>
<!-- Generator: Adobe Illustrator 26.1.0, SVG Export Plug-In . SVG Version: 6.00 Build 0)  -->
<svg version="1.1" id="Logos" xmlns="http://www.w3.org/2000/svg" xmlns:xlink="http://www.w3.org/1999/xlink" x="0px" y="0px"
	 width="300.0002px" height="48.895px" viewBox="0 0 300.0002 48.895" style="enable-background:new 0 0 300.0002 48.895;"
	 xml:space="preserve">
<style type="text/css">
	.st0{fill:#FFFFFF;}
	.st1{opacity:0.3;fill:#FFFFFF;}
	.st2{opacity:0.6;fill:#FFFFFF;}
	.st3{clip-path:url(#SVGID_00000049932127526693691600000007865099797421033912_);}
	.st4{fill:none;}
	.st5{opacity:0.3;}
	.st6{opacity:0.6;}
	.st7{clip-path:url(#SVGID_00000045577209056648094130000011248918087019174536_);}
</style>
<g>
	<g>
		<path d="M79.4757,20.2576l5.0042-5.0042l2.8904-2.8904c-0.3432,0.133-0.6843,0.2762-1.0207,0.4303
			c-0.5606,0.256-1.1102,0.5404-1.6476,0.8539c-0.9475,0.552-1.8568,1.1933-2.7168,1.9241c-0.391,0.3322-0.7718,0.6819-1.141,1.0507
			c-0.3685,0.3692-0.7185,0.7499-1.0507,1.141c-0.7308,0.8597-1.3721,1.7692-1.9237,2.7168
			c-0.3138,0.5377-0.5982,1.0873-0.8545,1.6472c-0.1538,0.3367-0.2967,0.6778-0.43,1.021
			c-0.0814,0.2099-0.1593,0.4204-0.2331,0.6324l3.1228-3.1225C79.4716,20.5225,79.4722,20.3892,79.4757,20.2576z"/>
		<path d="M80.2707,24.6336l8.5851-8.5851c-0.149-0.052-0.296-0.1005-0.443-0.1477l4.7882-4.7878
			c-0.5893,0.0314-1.1779,0.0899-1.7624,0.176L87.17,15.5576c-0.1641-0.0383-0.3268-0.0718-0.4874-0.1032l-7.0059,7.0059
			c-0.0219-0.1138-0.0424-0.2266-0.0608-0.3384L75.73,26.0077c-0.0861,0.401-0.1586,0.804-0.2188,1.2087
			c-0.0437,0.3001-0.0814,0.6016-0.1107,0.9031c-0.0287,0.2861-0.0506,0.5725-0.0656,0.8593
			c-0.0178,0.3387-0.0273,0.6782-0.0273,1.0172l5.0678-5.0678C80.3391,24.8298,80.3049,24.7313,80.2707,24.6336z"/>
		<path d="M81.8814,28.1912l10.5321-10.532c-0.1278-0.0704-0.2557-0.1398-0.3828-0.2075l5.9811-5.9814
			c-0.4505-0.0923-0.9044-0.1675-1.3597-0.2266l-5.6776,5.6779c-0.1354-0.0636-0.27-0.1261-0.404-0.1866l-9.6132,9.6132
			c-0.0417-0.0926-0.082-0.1846-0.1224-0.2769l-5.4629,5.4633c0.0239,0.2991,0.0554,0.5978,0.0943,0.8956
			c0.0294,0.2314,0.0629,0.4625,0.1012,0.6929c0.0376,0.2229,0.0793,0.445,0.1251,0.6665c0.0547,0.27,0.1155,0.5394,0.1825,0.8074
			l6.1493-6.1493C81.9757,28.3621,81.9285,28.2766,81.8814,28.1912z"/>
		<path d="M83.8885,31.3578L95.58,19.6663c-0.1155-0.0824-0.2311-0.1641-0.3459-0.2447l6.6941-6.6941
			c-0.3712-0.1661-0.7465-0.3196-1.1259-0.4601l-6.5157,6.5157c-0.1203-0.0779-0.2406-0.1545-0.3603-0.2304L82.7749,29.7041
			c-0.0513-0.082-0.1032-0.1637-0.1538-0.2454l-6.3879,6.3875c0.0807,0.2461,0.1661,0.4905,0.2564,0.7339
			c0.0704,0.1907,0.1442,0.3808,0.2215,0.5698c0.0759,0.1866,0.1566,0.3716,0.2386,0.5561
			c0.1012,0.2263,0.2051,0.4512,0.3158,0.6741l6.7898-6.7902C83.9993,31.5123,83.9446,31.435,83.8885,31.3578z"/>
		<path d="M86.178,34.2365l12.2808-12.2808c-0.1053-0.0923-0.2106-0.1839-0.3165-0.2741l7.0688-7.0691
			c-0.3104-0.2232-0.6262-0.4362-0.9475-0.6382l-6.986,6.986c-0.1094-0.0885-0.2188-0.1757-0.3281-0.2625L84.9201,32.7271
			c-0.0588-0.0749-0.1169-0.1494-0.175-0.2242l-6.9204,6.9201c0.1203,0.2078,0.2434,0.4143,0.3719,0.6183
			c0.1012,0.1613,0.2065,0.3213,0.3131,0.4803c0.106,0.1569,0.2147,0.3128,0.3254,0.4676c0.1367,0.1911,0.2762,0.3811,0.4211,0.5681
			l7.1084-7.1081C86.3017,34.3781,86.2402,34.3076,86.178,34.2365z"/>
		<path d="M88.7095,36.876l12.3888-12.3888c-0.0957-0.1005-0.1928-0.2006-0.2899-0.3008l7.1617-7.1617
			c-0.1278-0.1354-0.2577-0.27-0.3904-0.4027c-0.1326-0.1326-0.2673-0.2622-0.4027-0.3904l-7.1617,7.1617
			c-0.0998-0.0971-0.2003-0.1942-0.3008-0.2899L87.3258,35.4924c-0.0656-0.0684-0.1292-0.1367-0.1942-0.2054l-7.1487,7.1491
			c0.1538,0.175,0.3104,0.348,0.471,0.5189c0.1285,0.1354,0.2577,0.27,0.3904,0.4027c0.1326,0.1326,0.2673,0.2625,0.4027,0.3904
			c0.1709,0.1607,0.3439,0.3172,0.5189,0.471l7.1488-7.1491C88.8462,37.0053,88.7779,36.941,88.7095,36.876z"/>
		<path d="M91.4748,39.2818l12.0292-12.0292c-0.0868-0.1094-0.1736-0.2188-0.2625-0.3281l6.986-6.986
			c-0.2017-0.3213-0.415-0.6368-0.6385-0.9479l-7.0688,7.0691c-0.0902-0.1056-0.1818-0.2112-0.2741-0.3165L89.9653,38.0239
			c-0.0711-0.0622-0.1415-0.1241-0.2126-0.1866l-7.1084,7.1081c0.1873,0.1449,0.3774,0.2847,0.5688,0.4218
			c0.1545,0.1111,0.3104,0.2194,0.4669,0.3251c0.1593,0.107,0.3193,0.2116,0.4806,0.3131c0.2037,0.1285,0.4102,0.2516,0.618,0.3716
			l6.9197-6.9197C91.6238,39.399,91.5493,39.3409,91.4748,39.2818z"/>
		<path d="M94.4978,41.427l11.1514-11.1514c-0.0759-0.1203-0.1525-0.24-0.2304-0.3603l6.5164-6.516
			c-0.1408-0.3791-0.2946-0.7544-0.4608-1.1256l-6.6941,6.6941c-0.0807-0.1155-0.162-0.2304-0.2447-0.3459L92.8441,40.3134
			c-0.0772-0.0554-0.1545-0.1107-0.2324-0.1671l-6.7898,6.7902c0.2229,0.1108,0.4478,0.215,0.6741,0.3158
			c0.1846,0.0827,0.3692,0.1627,0.5558,0.2389c0.1887,0.0769,0.3787,0.1507,0.5695,0.2215c0.2434,0.0906,0.4881,0.176,0.7342,0.256
			l6.3879-6.3879C94.6619,41.5302,94.5798,41.4786,94.4978,41.427z"/>
		<path d="M97.8538,43.2448l9.6133-9.6132c-0.0602-0.134-0.1231-0.269-0.1866-0.404l5.6783-5.6783
			c-0.0588-0.4553-0.1347-0.9085-0.2263-1.3594l-5.9818,5.9818c-0.0684-0.1275-0.1367-0.2553-0.2078-0.3832L96.0107,42.3205
			c-0.0855-0.0468-0.1709-0.0943-0.2564-0.1429l-6.1493,6.1493c0.268,0.067,0.5373,0.1278,0.8067,0.1829
			c0.2222,0.0455,0.4444,0.0875,0.6672,0.1248c0.2297,0.0386,0.4608,0.0718,0.6925,0.1019
			c0.2981,0.0386,0.5968,0.0697,0.8956,0.0943l5.4636-5.4636C98.0384,43.3275,97.9461,43.2865,97.8538,43.2448z"/>
		<path d="M108.301,35.7891c-0.0465-0.147-0.0957-0.2946-0.1477-0.443l-8.5851,8.5851c-0.0978-0.0338-0.1962-0.0684-0.2946-0.1046
			l-5.0685,5.0685c0.3398,0,0.6788-0.0096,1.0179-0.028c0.2864-0.015,0.5729-0.0366,0.8586-0.0649
			c0.3022-0.0297,0.603-0.067,0.9038-0.1111c0.404-0.0598,0.8074-0.1323,1.208-0.2184l3.8865-3.8865
			c-0.1121-0.0185-0.2249-0.039-0.3384-0.0608l7.0059-7.0059c-0.0308-0.1613-0.0649-0.3234-0.1032-0.4878l4.2686-4.2686
			c0.0868-0.5848,0.1449-1.1728,0.1764-1.7621L108.301,35.7891z"/>
		<path d="M103.9436,44.7265c-0.1313,0.0031-0.2646,0.0038-0.3999,0.001l-3.1228,3.1228c0.2119-0.0735,0.4225-0.1518,0.6324-0.2328
			c0.3432-0.133,0.6836-0.2765,1.0207-0.4303c0.5599-0.256,1.1095-0.5401,1.6469-0.8535c0.9461-0.5513,1.8554-1.1919,2.714-1.9217
			c0.3924-0.3333,0.7752-0.684,1.1451-1.0545c0.3705-0.3702,0.7212-0.7527,1.0548-1.1447c0.7294-0.859,1.37-1.7679,1.921-2.7144
			c0.3138-0.5373,0.5982-1.087,0.8539-1.6469c0.1538-0.3367,0.2974-0.6775,0.43-1.021l-2.8904,2.8911L103.9436,44.7265z"/>
	</g>
	<g>
		<path d="M0,30.1288c0-10.7413,7.0566-17.3653,16.138-17.3653c9.2038,0,15.338,6.4416,15.523,16.9953v1.7199H7.239
			c0.4925,5.7068,4.0495,9.5739,9.5739,9.5739c3.742,0,6.5641-1.8449,7.669-5.097h7.0566
			c-1.6573,6.9941-7.1192,11.2312-14.7881,11.2312C6.8091,47.1866,0,40.0674,0,30.1288z M24.1744,26.3868
			c-0.9199-4.6645-3.8045-7.4892-8.0364-7.4892c-4.297,0-7.4866,2.8247-8.5915,7.4892H24.1744z"/>
		<path d="M36.9091,29.7587c0-10.6735,7.1791-16.9953,16.6279-16.9953c8.8963,0,14.9106,5.4618,15.523,13.5608h-7.1166
			c-0.6749-4.482-3.8671-7.3641-8.469-7.3641c-5.5218,0-9.2038,4.1746-9.2038,10.7986c0,7.1192,4.0495,11.2312,9.4514,11.2312
			c4.4169,0,7.484-2.8247,8.2214-7.4892H69.06c-0.8573,8.4064-6.6866,13.6859-15.338,13.6859
			C43.1058,47.1866,36.9091,39.5775,36.9091,29.7587z"/>
		<path d="M119.5455,4.6645C119.5455,2.0274,121.5703,0,124.21,0c2.6996,0,4.6618,2.0273,4.6618,4.6645
			s-1.9622,4.7218-4.6618,4.7218C121.5703,9.3863,119.5455,7.3016,119.5455,4.6645z M120.5905,46.2641V13.7432h7.239v32.5209
			H120.5905z"/>
		<path d="M136.3506,46.2641V13.7432h5.8293l0.6124,4.7895c2.0247-3.3772,6.1367-5.7693,10.9836-5.7693
			c6.9341,0,11.4735,4.6645,11.4735,11.966v21.5347h-7.239V25.0943c0-3.6169-2.3948-6.0091-6.4442-6.0091
			c-4.7244,0-7.9139,3.2521-7.9765,7.484v19.6949H136.3506z"/>
		<path d="M182.7137,46.2641l-13.5608-32.5209h7.854l9.5113,23.9946l9.4488-23.9946h7.854l-13.5608,32.5209H182.7137z"/>
		<path d="M206.1845,30.1288c0-10.7413,7.0566-17.3653,16.138-17.3653c9.2038,0,15.3406,6.4416,15.523,16.9953v1.7199h-24.4193
			c0.4899,5.7068,4.0495,9.5739,9.5712,9.5739c3.742,0,6.5667-1.8449,7.669-5.097h7.0566
			c-1.6547,6.9941-7.1166,11.2312-14.7855,11.2312C212.9962,47.1866,206.1845,40.0674,206.1845,30.1288z M230.3615,26.3868
			c-0.9199-4.6645-3.8045-7.4892-8.039-7.4892c-4.2944,0-7.4866,2.8247-8.5889,7.4892H230.3615z"/>
		<path d="M244.8917,46.2641V13.7432h5.8293l0.6124,4.7895c2.0273-3.3772,6.1367-5.7693,10.9836-5.7693
			c6.9341,0,11.4761,4.6645,11.4761,11.966v21.5347h-7.2416V25.0943c0-3.6169-2.3922-6.0091-6.4416-6.0091
			c-4.7244,0-7.9165,3.2521-7.9765,7.484v19.6949H244.8917z"/>
		<path d="M295.2157,46.2641c-7.0566,0-10.8611-3.497-10.8611-9.9387V19.8826h-5.7068v-6.1394h5.7068V2.6371h7.239v11.1061H300
			v6.1394h-8.4064v15.953c0,2.7622,1.4124,4.2944,4.112,4.2944h3.6821v6.1341H295.2157z"/>
	</g>
</g>
</svg>
